HIERARCHY
ROOT Hips
{
  OFFSET -284.916 88.9611 1553.99
  CHANNELS 6 Xposition Yposition Zposition Zrotation Xrotation Yrotation
  JOINT Spine
  {
    OFFSET 0 8 0
    CHANNELS 6 Xposition Yposition Zposition Zrotation Xrotation Yrotation
    JOINT Spine1
    {
      OFFSET 0 8 0
      CHANNELS 6 Xposition Yposition Zposition Zrotation Xrotation Yrotation
      JOINT Spine2
      {
        OFFSET 0 8 0
        CHANNELS 6 Xposition Yposition Zposition Zrotation Xrotation Yrotation
        JOINT Spine3
        {
          OFFSET 0 8 0
          CHANNELS 6 Xposition Yposition Zposition Zrotation Xrotation Yrotation
          JOINT Neck
          {
            OFFSET 0 17 0
            CHANNELS 6 Xposition Yposition Zposition Zrotation Xrotation Yrotation
            JOINT Head
            {
              OFFSET 0 10.8 0
              CHANNELS 6 Xposition Yposition Zposition Zrotation Xrotation Yrotation
              End Site
              {
                OFFSET 0 20.25 0
              }
            }
          }
          JOINT LeftShoulder
          {
            OFFSET 5 17 0
            CHANNELS 6 Xposition Yposition Zposition Zrotation Xrotation Yrotation
            JOINT LeftShoulder2
            {
              OFFSET 6.45 0 0
              CHANNELS 6 Xposition Yposition Zposition Zrotation Xrotation Yrotation
              JOINT LeftArm
              {
                OFFSET 6.45 0 0
                CHANNELS 6 Xposition Yposition Zposition Zrotation Xrotation Yrotation
                JOINT LeftForeArm
                {
                  OFFSET 0 -32.4 -2
                  CHANNELS 6 Xposition Yposition Zposition Zrotation Xrotation Yrotation
                  JOINT LeftHand
                  {
                    OFFSET 0 -25.65 2
                    CHANNELS 6 Xposition Yposition Zposition Zrotation Xrotation Yrotation
                    JOINT LeftHandThumb1
                    {
                      OFFSET -0.5 -1.5 2.65
                      CHANNELS 6 Xposition Yposition Zposition Zrotation Xrotation Yrotation
                      JOINT LeftHandThumb2
                      {
                        OFFSET 0 -3.8 3.7
                        CHANNELS 6 Xposition Yposition Zposition Zrotation Xrotation Yrotation
                        JOINT LeftHandThumb3
                        {
                          OFFSET 0 -3 2.7
                          CHANNELS 6 Xposition Yposition Zposition Zrotation Xrotation Yrotation
                          End Site
                          {
                            OFFSET 0 -2.3 1.8
                          }
                        }
                      }
                    }
                    JOINT LeftHandIndex
                    {
                      OFFSET 0 -1.9 1.6
                      CHANNELS 6 Xposition Yposition Zposition Zrotation Xrotation Yrotation
                      JOINT LeftHandIndex1
                      {
                        OFFSET 0 -8.3 1.9
                        CHANNELS 6 Xposition Yposition Zposition Zrotation Xrotation Yrotation
                        JOINT LeftHandIndex2
                        {
                          OFFSET 0 -4.5 0
                          CHANNELS 6 Xposition Yposition Zposition Zrotation Xrotation Yrotation
                          JOINT LeftHandIndex3
                          {
                            OFFSET 0 -3.4 0
                            CHANNELS 6 Xposition Yposition Zposition Zrotation Xrotation Yrotation
                            End Site
                            {
                              OFFSET 0 -2.6 0
                            }
                          }
                        }
                      }
                    }
                    JOINT LeftHandMiddle
                    {
                      OFFSET -0.25 -2.2 0.4
                      CHANNELS 6 Xposition Yposition Zposition Zrotation Xrotation Yrotation
                      JOINT LeftHandMiddle1
                      {
                        OFFSET 0 -8.3 1
                        CHANNELS 6 Xposition Yposition Zposition Zrotation Xrotation Yrotation
                        JOINT LeftHandMiddle2
                        {
                          OFFSET 0 -4.65 0
                          CHANNELS 6 Xposition Yposition Zposition Zrotation Xrotation Yrotation
                          JOINT LeftHandMiddle3
                          {
                            OFFSET 0 -3.3 0
                            CHANNELS 6 Xposition Yposition Zposition Zrotation Xrotation Yrotation
                            End Site
                            {
                              OFFSET 0 -2.7 0
                            }
                          }
                        }
                      }
                    }
                    JOINT LeftHandRing
                    {
                      OFFSET -0.5 -2.15 -0.8
                      CHANNELS 6 Xposition Yposition Zposition Zrotation Xrotation Yrotation
                      JOINT LeftHandRing1
                      {
                        OFFSET 0 -7.75 -0.2
                        CHANNELS 6 Xposition Yposition Zposition Zrotation Xrotation Yrotation
                        JOINT LeftHandRing2
                        {
                          OFFSET 0 -3.8 0
                          CHANNELS 6 Xposition Yposition Zposition Zrotation Xrotation Yrotation
                          JOINT LeftHandRing3
                          {
                            OFFSET 0 -3.4 0
                            CHANNELS 6 Xposition Yposition Zposition Zrotation Xrotation Yrotation
                            End Site
                            {
                              OFFSET 0 -2.6 0
                            }
                          }
                        }
                      }
                    }
                    JOINT LeftHandPinky
                    {
                      OFFSET -0.75 -1.75 -1.85
                      CHANNELS 6 Xposition Yposition Zposition Zrotation Xrotation Yrotation
                      JOINT LeftHandPinky1
                      {
                        OFFSET 0 -7.15 -1
                        CHANNELS 6 Xposition Yposition Zposition Zrotation Xrotation Yrotation
                        JOINT LeftHandPinky2
                        {
                          OFFSET 0 -3 0
                          CHANNELS 6 Xposition Yposition Zposition Zrotation Xrotation Yrotation
                          JOINT LeftHandPinky3
                          {
                            OFFSET 0 -2.35 0
                            CHANNELS 6 Xposition Yposition Zposition Zrotation Xrotation Yrotation
                            End Site
                            {
                              OFFSET 0 -2.1 0
                            }
                          }
                        }
                      }
                    }
                  }
                }
              }
            }
          }
          JOINT RightShoulder
          {
            OFFSET -5 17 0
            CHANNELS 6 Xposition Yposition Zposition Zrotation Xrotation Yrotation
            JOINT RightShoulder2
            {
              OFFSET -6.45 0 0
              CHANNELS 6 Xposition Yposition Zposition Zrotation Xrotation Yrotation
              JOINT RightArm
              {
                OFFSET -6.45 0 0
                CHANNELS 6 Xposition Yposition Zposition Zrotation Xrotation Yrotation
                JOINT RightForeArm
                {
                  OFFSET 0 -32.4 -2
                  CHANNELS 6 Xposition Yposition Zposition Zrotation Xrotation Yrotation
                  JOINT RightHand
                  {
                    OFFSET 0 -25.65 2
                    CHANNELS 6 Xposition Yposition Zposition Zrotation Xrotation Yrotation
                    JOINT RightHandThumb1
                    {
                      OFFSET 0.5 -1.5 2.65
                      CHANNELS 6 Xposition Yposition Zposition Zrotation Xrotation Yrotation
                      JOINT RightHandThumb2
                      {
                        OFFSET 0 -3.8 3.7
                        CHANNELS 6 Xposition Yposition Zposition Zrotation Xrotation Yrotation
                        JOINT RightHandThumb3
                        {
                          OFFSET 0 -3 2.7
                          CHANNELS 6 Xposition Yposition Zposition Zrotation Xrotation Yrotation
                          End Site
                          {
                            OFFSET 0 -2.3 1.8
                          }
                        }
                      }
                    }
                    JOINT RightHandIndex
                    {
                      OFFSET 0 -1.9 1.6
                      CHANNELS 6 Xposition Yposition Zposition Zrotation Xrotation Yrotation
                      JOINT RightHandIndex1
                      {
                        OFFSET 0 -8.3 1.9
                        CHANNELS 6 Xposition Yposition Zposition Zrotation Xrotation Yrotation
                        JOINT RightHandIndex2
                        {
                          OFFSET 0 -4.5 0
                          CHANNELS 6 Xposition Yposition Zposition Zrotation Xrotation Yrotation
                          JOINT RightHandIndex3
                          {
                            OFFSET 0 -3.4 0
                            CHANNELS 6 Xposition Yposition Zposition Zrotation Xrotation Yrotation
                            End Site
                            {
                              OFFSET 0 -2.6 0
                            }
                          }
                        }
                      }
                    }
                    JOINT RightHandMiddle
                    {
                      OFFSET 0.25 -2.2 0.4
                      CHANNELS 6 Xposition Yposition Zposition Zrotation Xrotation Yrotation
                      JOINT RightHandMiddle1
                      {
                        OFFSET 0 -8.3 1
                        CHANNELS 6 Xposition Yposition Zposition Zrotation Xrotation Yrotation
                        JOINT RightHandMiddle2
                        {
                          OFFSET 0 -4.65 0
                          CHANNELS 6 Xposition Yposition Zposition Zrotation Xrotation Yrotation
                          JOINT RightHandMiddle3
                          {
                            OFFSET 0 -3.3 0
                            CHANNELS 6 Xposition Yposition Zposition Zrotation Xrotation Yrotation
                            End Site
                            {
                              OFFSET 0 -2.7 0
                            }
                          }
                        }
                      }
                    }
                    JOINT RightHandRing
                    {
                      OFFSET 0.5 -2.15 -0.8
                      CHANNELS 6 Xposition Yposition Zposition Zrotation Xrotation Yrotation
                      JOINT RightHandRing1
                      {
                        OFFSET 0 -7.75 -0.2
                        CHANNELS 6 Xposition Yposition Zposition Zrotation Xrotation Yrotation
                        JOINT RightHandRing2
                        {
                          OFFSET 0 -3.8 0
                          CHANNELS 6 Xposition Yposition Zposition Zrotation Xrotation Yrotation
                          JOINT RightHandRing3
                          {
                            OFFSET 0 -3.4 0
                            CHANNELS 6 Xposition Yposition Zposition Zrotation Xrotation Yrotation
                            End Site
                            {
                              OFFSET 0 -2.6 0
                            }
                          }
                        }
                      }
                    }
                    JOINT RightHandPinky
                    {
                      OFFSET 0.75 -1.75 -1.85
                      CHANNELS 6 Xposition Yposition Zposition Zrotation Xrotation Yrotation
                      JOINT RightHandPinky1
                      {
                        OFFSET 0 -7.15 -1
                        CHANNELS 6 Xposition Yposition Zposition Zrotation Xrotation Yrotation
                        JOINT RightHandPinky2
                        {
                          OFFSET 0 -3 0
                          CHANNELS 6 Xposition Yposition Zposition Zrotation Xrotation Yrotation
                          JOINT RightHandPinky3
                          {
                            OFFSET 0 -2.35 0
                            CHANNELS 6 Xposition Yposition Zposition Zrotation Xrotation Yrotation
                            End Site
                            {
                              OFFSET 0 -2.1 0
                            }
                          }
                        }
                      }
                    }
                  }
                }
              }
            }
          }
        }
      }
    }
  }
  JOINT LeftUpLeg
  {
    OFFSET 8 0 0
    CHANNELS 6 Xposition Yposition Zposition Zrotation Xrotation Yrotation
    JOINT LeftLeg
    {
      OFFSET 0 -45 -1
      CHANNELS 6 Xposition Yposition Zposition Zrotation Xrotation Yrotation
      JOINT LeftFoot
      {
        OFFSET 0 -41 -2
        CHANNELS 6 Xposition Yposition Zposition Zrotation Xrotation Yrotation
        JOINT LeftToeBase
        {
          OFFSET 0 -7.5 12.5
          CHANNELS 6 Xposition Yposition Zposition Zrotation Xrotation Yrotation
          JOINT LeftFootToe
          {
            OFFSET 0 0 4
            CHANNELS 6 Xposition Yposition Zposition Zrotation Xrotation Yrotation
            End Site
            {
              OFFSET 0 0 0
            }
          }
        }
      }
    }
  }
  JOINT RightUpLeg
  {
    OFFSET -8 0 0
    CHANNELS 6 Xposition Yposition Zposition Zrotation Xrotation Yrotation
    JOINT RightLeg
    {
      OFFSET 0 -45 -1
      CHANNELS 6 Xposition Yposition Zposition Zrotation Xrotation Yrotation
      JOINT RightFoot
      {
        OFFSET 0 -41 -2
        CHANNELS 6 Xposition Yposition Zposition Zrotation Xrotation Yrotation
        JOINT RightToeBase
        {
          OFFSET 0 -7.5 12.5
          CHANNELS 6 Xposition Yposition Zposition Zrotation Xrotation Yrotation
          JOINT RightFootToe
          {
            OFFSET 0 0 4
            CHANNELS 6 Xposition Yposition Zposition Zrotation Xrotation Yrotation
            End Site
            {
              OFFSET 0 0 0
            }
          }
        }
      }
    }
  }
}
MOTION
Frames:	3
Frame Time:	0.0111111
-281.141 92.5474 1550.75 2.67858 -1.68789 143.87 0 8 -2.27374e-13 4.64431 1.60434 0.845828 0 8 0 -0.714214 0.811657 1.49683 0 8 -2.27374e-13 -0.354503 0.408208 0.747636 0 8 0 -0.354457 0.408153 0.747527 2.27374e-13 17 -2.27374e-13 0.0369917 10.0319 -2.06518 0 10.8 0 -0.929176 8.18928 -4.85982 5 17 2.27374e-13 -4.53792 3.50987 -1.86983 6.45 -2.84217e-14 2.27374e-13 1.00019 -0.447152 2.70579 6.45 2.84217e-14 0 12.2043 2.10604 37.0687 0 -32.4 -2 -64.953 -49.6733 -115.459 0 -25.65 2 0.266489 -15.4186 -29.1499 -0.5 -1.5 2.65 -32.3225 -53.8684 119.122 0 -3.8 3.7 -0.0466631 34.8407 0.0113206 0 -3 2.7 -0.017486 55.887 -0.0214172 -5.68434e-14 -1.9 1.6 -7.95139e-15 6.36111e-15 -4.77083e-15 0 -8.3 1.9 -20.9474 16.8694 3.67732 3.41061e-13 -4.5 -1.13687e-13 -64.5806 0.00200809 -0.00414096 0 -3.4 5.68434e-14 -46.2028 0.00133032 -0.0020167 -0.25 -2.2 0.4 -7.95139e-15 6.36111e-15 -4.77083e-15 0 -8.3 1 -33.9091 16.716 6.7572 2.27374e-13 -4.65 1.13687e-13 -71.8998 0.00093981 -0.000300696 -2.27374e-13 -3.3 1.13687e-13 -90.0002 -1.90833e-14 1.59028e-14 -0.5 -2.15 -0.8 -7.95139e-15 6.36111e-15 -4.77083e-15 -2.84217e-13 -7.75 -0.2 -70.6591 0.849106 10.4819 0 -3.8 -1.13687e-13 -1.77347 -0.00228002 -0 -2.27374e-13 -3.4 -1.7053e-13 -90.0002 -0.00108337 1.92821e-14 -0.75 -1.75 -1.85 -7.95139e-15 6.36111e-15 -4.77083e-15 -1.13687e-13 -7.15 -1 -54.2329 11.0424 9.37411 2.27374e-13 -3 -1.13687e-13 -55.9151 0.00471397 -0.000756585 0 -2.35 1.7053e-13 -90.0002 4.13472e-14 -2.8625e-14 -5 17 -2.27374e-13 6.81147 4.4236 -0.121199 -6.45 5.68434e-14 0 -0.988986 0.679399 -0.0773187 -6.45 2.84217e-14 0 -39.5372 15.2119 -14.141 0 -32.4 -2 70.315 -57.5983 76.0249 5.68434e-14 -25.65 2 -16.1473 12.2294 1.43034 0.5 -1.5 2.65 9.84599 18.466 9.45896 1.42109e-14 -3.8 3.7 1.66577 6.18167 -0.596031 -1.42109e-14 -3 2.7 0.431959 61.713 -0.339158 0 -1.9 1.6 4.77083e-15 -3.18055e-15 4.77083e-15 0 -8.3 1.9 3.20081 5.61125 -0.153316 0 -4.5 0 3.97546e-15 0.00413225 3.18055e-15 0 -3.4 0 -1.03371e-14 0.00390789 4.77083e-15 0.25 -2.2 0.4 4.77083e-15 -3.18055e-15 4.77083e-15 0 -8.3 1 4.37832 4.96013 -0.448346 -2.84217e-14 -4.65 2.27374e-13 -5.56597e-15 -3.18055e-15 -3.18055e-15 2.84217e-14 -3.3 2.27374e-13 -3.53113e-31 -3.18055e-15 -6.36111e-15 0.5 -2.15 -0.8 4.77083e-15 -3.18055e-15 4.77083e-15 0 -7.75 -0.2 6.58863 6.1829 -1.16225 -2.84217e-14 -3.8 0 25.7639 -0.0850138 0.549331 0 -3.4 0 19.2261 0.0793396 0.346875 0.75 -1.75 -1.85 4.77083e-15 -3.18055e-15 4.77083e-15 -1.13687e-13 -7.15 -1 7.29641 3.8732 -1.29284 2.84217e-14 -3 0 20.6954 -0.0428123 0.176565 2.84217e-14 -2.35 0 16.2976 0.00867802 0.114514 8 2.84217e-14 -2.27374e-13 -3.48497 -21.7483 -31.5308 0 -45 -1 0.233427 20.2022 -1.80626 0 -41 -2 -2.12207 -3.28628 24.4222 0 -7.5 12.5 7.95139e-16 1.59028e-15 -3.18055e-15 -3.41061e-13 2.84217e-14 4 4.5258 -1.51143 69.0947 -8 0 -2.27374e-13 3.03856 -6.23466 -20.4971 -4.54747e-13 -45 -1 0.0898573 10.7689 -1.66865 2.27374e-13 -41 -2 -2.0952 -4.73991 11.2789 0 -7.5 12.5 2.12325e-18 -0.00185781 -6.36111e-15 0 0 4 3.11463 7.87567 55.5181 
-280.94 92.5366 1550.74 2.73784 -1.71082 144.136 2.27374e-13 8 0 4.73103 1.78828 0.842624 -1.13687e-13 8 0 -0.737957 0.847764 1.49684 -1.13687e-13 8 0 -0.366251 0.426336 0.747637 0 8 0 -0.366202 0.426278 0.747528 0 17 0 -0.062958 9.75696 -2.07006 -1.13687e-13 10.8 2.27374e-13 -1.03392 7.50715 -4.88672 5 17 4.54747e-13 -4.65416 3.48688 -1.79169 6.45 -2.84217e-14 0 0.974053 -0.454414 2.6911 6.45 0 0 12.2419 2.06011 36.8378 0 -32.4 -2 -64.779 -49.8184 -115.503 1.13687e-13 -25.65 2 0.219398 -15.1534 -29.1196 -0.5 -1.5 2.65 -32.3214 -53.8457 119.266 0 -3.8 3.7 -0.046707 35.0227 0.0113458 1.13687e-13 -3 2.7 -0.018755 56.4791 -0.0105944 0 -1.9 1.6 -1.59028e-15 -3.18055e-15 -9.54166e-15 0 -8.3 1.9 -20.6915 16.817 3.6254 3.41061e-13 -4.5 -5.68434e-14 -64.5941 0.00200809 -0.00414096 0 -3.4 0 -46.2157 0.00133032 -0.0020167 -0.25 -2.2 0.4 -1.59028e-15 -3.18055e-15 -9.54166e-15 0 -8.3 1 -33.6896 16.6762 6.70208 2.27374e-13 -4.65 -2.27374e-13 -71.7732 0.00093981 -0.000300696 0 -3.3 0 -90.0002 -6.36111e-15 -7.95139e-15 -0.5 -2.15 -0.8 -1.59028e-15 -3.18055e-15 -9.54166e-15 -2.27374e-13 -7.75 -0.2 -70.5656 0.887469 10.4875 0 -3.8 0 -1.77347 -0.00228002 -0 2.27374e-13 -3.4 -2.27374e-13 -90.0002 -0.00108337 -2.5842e-15 -0.75 -1.75 -1.85 -1.59028e-15 -3.18055e-15 -9.54166e-15 0 -7.15 -1 -54.1136 11.0804 9.36892 2.27374e-13 -3 0 -55.5112 0.00471397 -0.000756585 0 -2.35 1.13687e-13 -90.0002 4.77083e-14 -4.13472e-14 -5 17 0 6.70723 4.40035 -0.0897643 -6.45 2.84217e-14 -2.27374e-13 -0.9889 0.679399 -0.0845234 -6.45 1.42109e-14 -2.27374e-13 -39.4613 15.3533 -14.1865 0 -32.4 -2 68.831 -57.7596 75.1263 0 -25.65 2 -15.7274 12.0307 1.62667 0.5 -1.5 2.65 9.34263 16.1797 9.48963 2.84217e-14 -3.8 3.7 1.68784 6.74226 -0.579372 -1.42109e-14 -3 2.7 0.454499 61.2608 -0.366321 0 -1.9 1.6 6.36111e-15 -3.18055e-15 9.54166e-15 0 -8.3 1.9 1.95573 5.39264 -0.0943291 -1.13687e-13 -4.5 0 -7.15636e-15 0.00413225 1.59028e-15 5.68434e-14 -3.4 2.27374e-13 -9.54166e-15 0.00390789 -0 0.25 -2.2 0.4 6.36111e-15 -3.18055e-15 9.54166e-15 0 -8.3 1 2.93182 5.30823 -0.185295 2.84217e-14 -4.65 -2.27374e-13 -1.35174e-14 -6.36111e-15 4.77083e-15 0 -3.3 -2.27374e-13 1.59028e-15 -3.18055e-15 -6.36111e-15 0.5 -2.15 -0.8 6.36111e-15 -3.18055e-15 9.54166e-15 5.68434e-14 -7.75 -0.2 4.93658 7.44173 -0.488513 -5.68434e-14 -3.8 0 21.4671 -0.0456276 0.25569 0 -3.4 2.27374e-13 16.5047 0.0234857 0.165107 0.75 -1.75 -1.85 6.36111e-15 -3.18055e-15 9.54166e-15 -5.68434e-14 -7.15 -1 5.19082 5.66835 -0.34818 2.84217e-14 -3 0 19.9809 0.00395388 0.00135257 0 -2.35 -2.27374e-13 15.858 0.00261768 0.000177623 8 3.55271e-14 0 -2.4563 -21.7126 -30.7082 0 -45 -1 0.308441 19.7811 -2.53142 4.54747e-13 -41 -2 -1.92692 -3.68021 24.4509 -1.13687e-13 -7.5 12.5 7.95139e-16 -7.95139e-16 -1.27222e-14 -1.13687e-13 5.68434e-14 4 5.66733 -2.04989 69.1033 -8 7.10543e-15 0 3.19991 -6.11064 -20.5966 -4.54747e-13 -45 -1 0.088022 10.707 -1.66831 2.27374e-13 -41 -2 -2.15261 -4.83258 11.1086 -2.27374e-13 -7.5 12.5 1.08589e-18 -0.00185781 9.54166e-15 0 0 4 3.07324 7.9739 55.5323 
-280.723 92.5301 1550.74 2.77783 -1.72572 144.355 1.13687e-13 8 0 4.7982 1.98253 0.83176 -2.27374e-13 8 0 -0.76098 0.883784 1.49686 0 8 0 -0.377643 0.44442 0.747639 0 8 0 -0.377592 0.444357 0.74753 1.13687e-13 17 0 -0.165358 9.43258 -2.04614 -1.13687e-13 10.8 0 -1.16923 6.7374 -4.84792 5 17 2.27374e-13 -4.76349 3.45543 -1.67827 6.45 0 0 0.949225 -0.460879 2.67268 6.45 2.84217e-14 0 12.2789 2.01365 36.6088 0 -32.4 -2 -64.5958 -49.9902 -115.585 1.13687e-13 -25.65 2 0.332885 -14.9168 -29.0852 -0.5 -1.5 2.65 -32.2712 -53.8056 119.452 0 -3.8 3.7 -0.0467516 35.2066 0.0113714 0 -3 2.7 -0.0214229 57.1441 0.00169991 0 -1.9 1.6 -9.54166e-15 -3.18055e-15 -6.36111e-15 0 -8.3 1.9 -20.5276 16.7781 3.59294 2.27374e-13 -4.5 0 -64.4288 0.00200809 -0.00414096 0 -3.4 5.68434e-14 -46.0567 0.00133032 -0.0020167 -0.25 -2.2 0.4 -9.54166e-15 -3.18055e-15 -6.36111e-15 -5.68434e-14 -8.3 1 -33.5256 16.6566 6.66178 0 -4.65 5.68434e-14 -71.6385 0.00093981 -0.000300696 0 -3.3 5.68434e-14 -90.0002 -3.49861e-14 3.81667e-14 -0.5 -2.15 -0.8 -9.54166e-15 -3.18055e-15 -6.36111e-15 -2.27374e-13 -7.75 -0.2 -70.5793 0.879122 10.4933 0 -3.8 -1.13687e-13 -1.77347 -0.00244286 -0 0 -3.4 -1.13687e-13 -90.0002 -0.00108337 -1.19271e-15 -0.75 -1.75 -1.85 -9.54166e-15 -3.18055e-15 -6.36111e-15 5.68434e-14 -7.15 -1 -54.0946 11.1096 9.3863 2.27374e-13 -3 -5.68434e-14 -55.1048 0.00471397 -0.000756585 0 -2.35 5.68434e-14 -90.0002 9.54166e-15 1.27222e-14 -5 17 0 6.60147 4.36831 -0.0282138 -6.45 5.68434e-14 -4.54747e-13 -0.988803 0.679399 -0.0927571 -6.45 1.42109e-14 -2.27374e-13 -39.3581 15.5518 -14.2637 0 -32.4 -2 67.4447 -57.7849 74.2273 0 -25.65 2 -15.3647 11.8059 1.59404 0.5 -1.5 2.65 9.08086 15.0175 9.58585 1.42109e-14 -3.8 3.7 1.6922 7.34175 -0.556753 -1.42109e-14 -3 2.7 0.46618 60.7631 -0.381475 -1.13687e-13 -1.9 1.6 6.36111e-15 6.36111e-15 6.36111e-15 -1.13687e-13 -8.3 1.9 1.08921 5.17037 -0.0565586 -5.68434e-14 -4.5 0 0.339939 0.00413225 -0.00518957 -2.84217e-14 -3.4 0 0.327665 0.00390789 -0.00502498 0.25 -2.2 0.4 6.36111e-15 6.36111e-15 6.36111e-15 -5.68434e-14 -8.3 1 1.94305 5.28188 -0.142471 2.84217e-14 -4.65 0 1.59028e-15 -6.36111e-15 -1.59028e-15 2.84217e-14 -3.3 2.27374e-13 9.54166e-15 -9.54166e-15 -9.54166e-15 0.5 -2.15 -0.8 6.36111e-15 6.36111e-15 6.36111e-15 5.68434e-14 -7.75 -0.2 3.81695 7.70246 -0.423425 2.84217e-14 -3.8 0 18.2635 -0.0384014 0.135424 0 -3.4 2.27374e-13 14.5162 0.000670312 0.0911952 0.75 -1.75 -1.85 6.36111e-15 6.36111e-15 6.36111e-15 -5.68434e-14 -7.15 -1 3.76474 5.99613 -0.276391 0 -3 0 20.1895 0.010035 -0.0266064 -2.84217e-14 -2.35 -4.54747e-13 15.9889 6.92967e-05 -0.0183109 8 2.13163e-14 0 -1.55651 -21.6961 -30.0196 -2.27374e-13 -45 -1 0.379822 19.5415 -3.18363 0 -41 -2 -1.71915 -4.09428 24.5158 -1.13687e-13 -7.5 12.5 1.59028e-15 7.95139e-16 -3.18055e-15 -1.13687e-13 2.84217e-14 4 6.63821 -2.5098 69.1192 -8 1.42109e-14 -4.54747e-13 3.36415 -5.98194 -20.6394 -6.82121e-13 -45 -1 0.0839353 10.6109 -1.66106 0 -41 -2 -2.22393 -4.90411 10.9079 -1.13687e-13 -7.5 12.5 1.08589e-18 -0.00185781 9.54166e-15 0 -1.38778e-17 4 3.04246 8.05577 55.538 
